# xmcd
# 
# Track frame offsets:
#   150
#   16982
#   35202
#   51737
#   67222
#   82162
#   95882
#   112270
#   128095
#   144607
#   160097
#   181092
#   195960
#   207402
# 
# Disc length: 2986 seconds
# 
# Revision: 1
# Processed by: cddbd v1.5.1PL2 Copyright (c) Steve Scherf et al.
# Submitted via: Synapstar 1.0 
# 
DISCID=d90ba80e
DTITLE=Various Artist - SD043 - Country Hits Today
DYEAR=1900
DGENRE=Country
TTITLE0=Shania Twain - Love Get Me Every Time
TTITLE1=Tracy Lawrence - The Coast Is Clear
TTITLE2=Patty Loveless - You Don't Seem To Miss Me
TTITLE3=Ty Herndon - I Have To Surrender
TTITLE4=Mindy McCready - What If I Do
TTITLE5=Ricochet - Blink Of An Eye
TTITLE6=Martina McBride - Broken Wing
TTITLE7=Diamond Rio - Imagine That
TTITLE8=Michael Peterson - From Here To Eternity
TTITLE9=Collin Raye - Open Arms
TTITLE10=Lila McCann - I Wanna Fall in Love
TTITLE11=Matraca Berg - That Train Don't Run
TTITLE12=Gary Allen - Living In A House Full Of Love
TTITLE13=John Berry - The Stone
EXTD=MediaType: Karaoke CD+G Producer: StarDisc
EXTT0=
EXTT1=
EXTT2=
EXTT3=
EXTT4=
EXTT5=
EXTT6=
EXTT7=
EXTT8=
EXTT9=
EXTT10=
EXTT11=
EXTT12=
EXTT13=
PLAYORDER=
